<?xml version="1.0" standalone="no"?><!DOCTYPE svg PUBLIC "-//W3C//DTD SVG 1.1//EN" "http://www.w3.org/Graphics/SVG/1.1/DTD/svg11.dtd"><svg t="1511495792672" class="icon" style="" viewBox="0 0 1024 1024" version="1.1" xmlns="http://www.w3.org/2000/svg" p-id="2426" xmlns:xlink="http://www.w3.org/1999/xlink" width="200" height="200"><defs><style type="text/css"></style></defs><path d="M208.186 509.265l223.405-223.425c24.691-24.691 24.691-64.67 0-89.348-24.675-24.691-64.688-24.691-89.365 0l-268.081 268.098c-24.691 24.675-24.691 64.66 0 89.348l268.081 268.098c24.675 24.691 64.688 24.691 89.365 0 24.691-24.691 24.691-64.67 0-89.348l-223.405-223.425zM908.225 446.076h-537.106c-34.895 0-63.188 28.29-63.188 63.188 0 34.881 28.29 63.188 63.188 63.188h537.106c34.895 0 63.188-28.29 63.188-63.188s-28.29-63.188-63.188-63.188z" p-id="2427" fill="#000000"></path></svg>