<svg class="icon" viewBox="0 0 1024 1024" xmlns="http://www.w3.org/2000/svg" width="200" height="200"><defs><style/></defs><path d="M208.186 509.265L431.591 285.84c24.691-24.691 24.691-64.67 0-89.348-24.675-24.691-64.688-24.691-89.365 0L74.145 464.59c-24.691 24.675-24.691 64.66 0 89.348l268.081 268.098c24.675 24.691 64.688 24.691 89.365 0 24.691-24.691 24.691-64.67 0-89.348L208.186 509.263zm700.039-63.189H371.119c-34.895 0-63.188 28.29-63.188 63.188 0 34.881 28.29 63.188 63.188 63.188h537.106c34.895 0 63.188-28.29 63.188-63.188s-28.29-63.188-63.188-63.188z"/></svg>